<?xml version="1.0" standalone="no"?>
<!DOCTYPE svg PUBLIC "-//W3C//DTD SVG 20010904//EN"
 "http://www.w3.org/TR/2001/REC-SVG-20010904/DTD/svg10.dtd">
<svg version="1.0" xmlns="http://www.w3.org/2000/svg"
 width="840.000000pt" height="840.000000pt" viewBox="0 0 840.000000 840.000000"
 preserveAspectRatio="xMidYMid meet">

<g transform="translate(0.000000,840.000000) scale(0.100000,-0.100000)"
fill="#000000" stroke="none">
<path d="M4145 7618 c-16 -12 -70 -52 -120 -89 -80 -59 -360 -263 -780 -567
-77 -56 -174 -126 -215 -156 -41 -30 -194 -141 -340 -246 -146 -104 -353 -253
-460 -331 -107 -77 -323 -233 -480 -345 -353 -254 -419 -302 -534 -386 -50
-37 -101 -74 -113 -83 l-23 -16 0 -1288 0 -1289 -130 -93 c-133 -96 -218 -156
-440 -314 -200 -141 -221 -166 -221 -266 -1 -98 49 -158 138 -166 68 -7 98 8
292 149 94 68 212 153 263 189 l93 66 3 -737 c2 -699 3 -738 20 -754 17 -15
248 -16 3097 -14 l3078 3 -2 748 c-1 411 1 747 4 747 4 0 63 -39 131 -87 191
-135 313 -220 376 -264 69 -47 130 -62 183 -43 78 26 110 85 103 184 -5 75
-32 111 -141 188 -157 112 -512 369 -580 418 l-67 50 -3 1289 -2 1289 -72 50
c-40 28 -235 168 -434 311 -198 143 -418 301 -488 350 -69 50 -160 115 -201
145 -41 30 -85 62 -97 70 -23 16 -271 195 -358 260 -27 20 -88 65 -135 98
-118 86 -1005 731 -1171 852 -76 55 -139 100 -140 100 -2 0 -17 -10 -34 -22z
m540 -779 c99 -72 226 -163 283 -202 l102 -71 0 -1068 c0 -587 -2 -1068 -5
-1068 -3 0 -29 17 -58 39 -62 46 -542 393 -609 441 l-48 33 0 1069 0 1068 78
-56 c42 -30 158 -114 257 -185z m-681 -812 c-1 -573 -2 -1052 -3 -1063 -1 -22
-10 -29 -396 -309 -239 -173 -312 -225 -316 -225 -2 0 -3 480 -2 1067 l2 1067
68 51 c37 28 104 75 148 106 44 30 148 104 230 164 205 149 257 185 264 185 3
0 5 -469 5 -1043z m-1071 -789 c-2 -768 -6 -1073 -14 -1078 -6 -4 -74 -54
-152 -111 -78 -57 -189 -139 -247 -181 -58 -42 -117 -86 -131 -97 -15 -12 -34
-24 -43 -27 -15 -6 -16 85 -14 1062 l3 1068 210 154 c116 84 248 182 295 217
47 35 87 64 90 65 3 0 4 -482 3 -1072z m2635 964 c81 -59 216 -156 300 -216
l152 -109 0 -1068 c0 -588 -2 -1069 -5 -1069 -3 0 -94 65 -203 144 -108 80
-241 176 -294 216 l-98 70 -2 1070 c-2 589 -2 1070 0 1070 2 0 69 -48 150
-108z m-3581 -709 c-4 -71 -7 -553 -7 -1073 l0 -946 -147 -104 c-80 -58 -165
-118 -188 -135 -23 -16 -79 -56 -123 -87 -44 -32 -83 -58 -86 -58 -3 0 -6 481
-6 1069 l0 1069 273 195 c149 108 276 196 281 196 5 1 6 -52 3 -126z m4741
-123 l192 -135 0 -1074 0 -1073 -35 26 c-19 15 -90 66 -157 113 -68 47 -176
124 -240 170 l-118 84 0 1070 0 1070 83 -58 c46 -32 170 -119 275 -193z
m-2420 -831 c70 -51 154 -111 187 -136 33 -24 155 -112 271 -196 508 -365 551
-396 764 -552 63 -46 149 -108 190 -137 103 -74 612 -446 737 -538 55 -41 182
-135 282 -209 l181 -133 2 -697 c2 -383 2 -699 0 -704 -2 -4 -1238 -7 -2748
-7 -2188 0 -2744 3 -2744 13 0 6 -3 321 -7 698 l-6 686 64 47 c35 26 138 102
229 167 266 193 387 281 453 330 34 25 127 93 207 151 80 57 303 219 495 358
193 140 413 299 490 355 77 56 185 134 240 175 55 40 120 87 144 104 24 17 89
65 145 106 145 107 289 210 294 210 2 0 61 -41 130 -91z"/>
<path d="M4030 3772 c-31 -15 -84 -55 -121 -93 -74 -74 -104 -136 -110 -229
l-4 -55 159 0 159 0 -1 120 c-2 283 -2 285 -14 285 -7 -1 -38 -13 -68 -28z"/>
<path d="M4270 3595 l0 -206 158 3 157 3 -3 50 c-5 90 -39 162 -112 237 -61
61 -150 118 -187 118 -10 0 -13 -48 -13 -205z"/>
<path d="M3790 3055 l0 -205 160 0 160 0 0 205 0 205 -160 0 -160 0 0 -205z"/>
<path d="M4270 3055 l0 -206 158 3 157 3 3 203 2 202 -160 0 -160 0 0 -205z"/>
<path d="M1797 2417 c-88 -28 -149 -113 -167 -234 -13 -90 -13 -292 1 -373 16
-103 80 -191 162 -225 42 -17 105 -13 163 11 45 19 99 83 123 148 37 100 25
138 -46 140 -34 1 -40 -3 -73 -54 -56 -83 -120 -102 -164 -49 -26 30 -26 32
-26 200 0 222 17 269 97 269 40 0 70 -24 98 -79 34 -68 64 -78 114 -35 26 21
29 30 24 57 -15 84 -69 162 -142 209 -49 31 -98 35 -164 15z"/>
<path d="M4140 2405 c-11 -13 -13 -94 -13 -402 0 -366 1 -387 19 -400 21 -16
91 -10 109 8 6 5 11 77 13 158 l3 149 53 6 c29 4 76 4 103 0 l51 -6 4 -145 c3
-138 4 -146 27 -164 27 -22 59 -24 96 -7 l25 11 0 390 c0 439 4 416 -76 417
-64 0 -69 -11 -72 -186 l-4 -153 -88 -3 c-131 -5 -120 -18 -120 145 0 174 -6
191 -71 195 -33 2 -50 -2 -59 -13z"/>
<path d="M4895 2398 c-58 -30 -91 -64 -116 -122 -21 -46 -23 -71 -27 -241 -5
-214 4 -275 50 -346 53 -80 137 -117 232 -103 56 9 87 26 126 70 64 74 70 101
70 342 0 208 -1 219 -24 268 -36 77 -88 130 -141 143 -65 16 -125 13 -170 -11z
m162 -176 c31 -37 35 -65 31 -244 -3 -141 -5 -159 -24 -185 -42 -56 -112 -53
-147 6 -25 43 -25 350 1 401 32 64 96 75 139 22z"/>
<path d="M2376 2368 c-15 -40 -246 -740 -246 -745 0 -1 7 -9 16 -17 22 -22 96
-21 117 2 8 9 23 40 32 68 l16 50 115 0 114 -1 23 -59 c19 -51 27 -61 55 -68
17 -5 47 -5 65 0 30 8 32 11 29 48 -4 35 -151 502 -218 692 l-26 72 -38 0
c-36 0 -39 -3 -54 -42z m95 -376 c16 -56 29 -105 29 -107 0 -7 -126 -6 -133 1
-3 3 3 29 12 57 10 29 24 77 30 107 17 77 23 90 28 65 3 -11 18 -66 34 -123z"/>
<path d="M2898 2396 c-78 -34 -120 -109 -122 -215 -1 -65 3 -85 27 -133 32
-64 100 -118 150 -118 50 0 107 -22 129 -49 24 -31 19 -84 -10 -113 -34 -34
-149 -22 -214 23 -54 38 -88 11 -88 -69 0 -78 46 -114 163 -131 182 -26 294
57 305 226 10 156 -67 241 -255 278 -96 19 -77 165 20 165 19 0 60 -11 91 -25
31 -14 65 -25 76 -25 58 0 82 99 36 145 -13 13 -47 31 -77 39 -61 19 -192 20
-231 2z"/>
<path d="M3506 2368 c-14 -39 -75 -224 -195 -592 -23 -72 -40 -139 -37 -151 5
-21 43 -45 71 -45 25 0 63 44 78 90 l15 45 117 0 117 0 19 -54 c22 -63 31 -71
79 -71 66 0 82 9 77 44 -4 34 -208 686 -231 741 -14 32 -19 35 -55 35 -37 0
-40 -2 -55 -42z m95 -377 c16 -58 29 -106 29 -108 0 -2 -32 -3 -71 -3 -64 0
-70 2 -64 18 3 9 18 60 32 112 34 127 35 130 41 105 2 -11 17 -67 33 -124z"/>
<path d="M5374 2396 c-18 -14 -19 -32 -22 -390 -3 -371 -3 -375 18 -396 16
-16 29 -20 48 -15 56 13 57 17 62 268 l5 232 19 -80 c10 -44 29 -111 42 -149
13 -38 24 -78 24 -89 0 -49 23 -96 52 -106 35 -12 72 0 87 27 6 11 31 99 55
197 24 97 47 179 50 183 3 3 6 -96 6 -219 0 -254 4 -269 65 -269 62 0 63 2 63
410 0 431 5 410 -93 410 -56 0 -66 -3 -79 -22 -8 -13 -39 -131 -69 -263 -30
-132 -57 -233 -60 -225 -3 8 -22 87 -42 175 -20 88 -40 174 -45 190 -5 17 -14
49 -20 72 -6 23 -17 49 -26 58 -20 19 -113 20 -140 1z"/>
<path d="M6115 2390 c-19 -21 -20 -40 -23 -387 -3 -319 -1 -368 13 -389 l15
-24 200 0 c187 0 201 1 220 20 14 14 20 33 20 63 0 71 -12 76 -180 79 l-145 3
-3 83 -3 82 125 0 c139 0 136 -2 136 76 0 53 -27 86 -68 84 -15 -1 -64 -2
-109 -1 l-83 1 0 80 c0 69 2 80 18 81 9 1 74 1 143 -1 118 -2 128 -1 148 19
27 27 28 90 2 122 -19 24 -23 24 -213 27 -188 3 -194 3 -213 -18z"/>
</g>
</svg>
